ply
format ascii 1.0
comment Exported by Aspose.3D 24.2.0
element vertex 300
property float x
property float y
property float z
property float nx
property float ny
property float nz
element face 1080
property list uchar int vertex_index
end_header
-0.823618 -0.673869 1.366201 -0.6302612133275353 2.407439393299914E-06 0.776383154743267
0.823618 -0.673869 1.366201 0.6302610217458797 -2.6749341166903613E-07 0.7763833102712656
0.823618 -0.685264 1.361481 0.6302640004691229 -0.5489855310817121 0.5489828561763908
-0.823618 -0.685264 1.361481 -0.630263003114177 -0.5489871735575246 0.5489823587100219
0.823618 -0.689984 1.350086 0.6302618184241442 -0.7763826635343039 -2.674927280368902E-07
-0.823618 -0.689984 1.350086 -0.6302625344764774 -0.7763820822410727 -3.2099048034583466E-06
0.823618 -0.685264 1.338691 0.6302634166746124 -0.5489831244136462 -0.548985933071764
-0.823618 -0.685264 1.338691 -0.6302633703984991 -0.5489834853422568 -0.5489856252720945
0.823618 -0.673869 1.333971 0.63026246903449 2.6749203918038494E-07 -0.7763821353730886
-0.823618 -0.673869 1.333971 -0.6302626606156343 -9.362216270245717E-07 -0.7763819798480807
0.823618 -0.662474 1.338691 0.6302626597054477 0.5489863007226045 -0.5489836258031066
-0.823618 -0.662474 1.338691 -0.6302620744377867 0.5489870379208494 -0.5489835605191377
0.823618 -0.657754 1.350086 0.6302632002586989 0.7763815417689885 2.674913277790659E-07
-0.823618 -0.657754 1.350086 -0.6302632002554747 0.7763815417650167 3.209895933332369E-06
0.823618 -0.662474 1.361481 0.6302632897740013 0.5489880789640782 0.5489811241915197
-0.823618 -0.662474 1.361481 -0.6302639093775061 0.5489873889267326 0.5489811028948001
-0.823618 -0.673869 1.350086 -1 0 0
0.823618 -0.673869 1.350086 1 0 0
-0.823617 0.673869 1.350086 -1 0 0
-0.823617 0.662474 1.361481 -0.6302616759495541 -0.5489897409392279 0.5489813149577486
-0.823617 0.673869 1.366201 -0.6302605341970215 1.3374629016953534E-07 0.7763837060588453
0.823618 0.673869 1.350086 1 0 0
0.823618 0.673869 1.366201 0.6302599139249905 -1.6049590112903224E-06 0.7763842095874233
0.823618 0.662474 1.361481 0.6302638438388276 -0.5489848853917988 0.5489836816890455
-0.823617 0.657754 1.350086 -0.6302630152505345 -0.7763816919576467 -5.349804550491241E-07
0.823618 0.657754 1.350086 0.6302615679577679 -0.7763828668249443 7.489764799650241E-06
-0.823617 0.662474 1.338691 -0.6302609652609868 -0.5489869390113437 -0.5489849328198764
0.823618 0.662474 1.338691 0.6302609189826747 -0.5489878349233733 -0.5489840900329094
-0.823617 0.673869 1.333971 -0.6302620621016204 1.3374559265545877E-06 -0.7763824657175257
0.823618 0.673869 1.333971 0.6302620621021786 1.3374559265557715E-07 -0.7763824657182131
-0.823617 0.685264 1.338691 -0.6302614579765361 0.5489867899247564 -0.5489845162455883
0.823618 0.685264 1.338691 0.6302614579772801 0.5489859874504041 -0.5489853187212369
-0.823617 0.689984 1.350086 -0.6302622840287 0.7763822855595306 5.349818778399375E-07
0.823618 0.689984 1.350086 0.6302622840287 0.7763822855595306 -5.349818778399375E-07
-0.823617 0.685264 1.361481 -0.6302621806040385 0.5489879800566949 0.5489824964910196
0.823618 0.685264 1.361481 0.6302621806008591 0.5489887825269513 0.5489816940152249
-0.561441 -0.081383 0 0.6532267438497869 -0.7571623479275473 -4.990288311421783E-07
-0.561441 -0.07048 0.040692 0.6532270603747266 -0.655721579571041 0.37858105826764804
-0.561441 -0.040692 0.07048 0.6532270521078304 -0.37858130299082143 0.6557214465154281
-0.561441 0 0.081383 0.6532268251904085 -1.2475717566670504E-07 0.757162277752692
-0.561441 0.040692 0.07048 0.6532273953204193 0.37858162665876344 0.6557209177381074
-0.561441 0.07048 0.040692 0.6532257304813696 0.6557229892508296 0.3785809113056788
-0.561441 0.081383 0 0.6532258996201428 0.7571630762691701 -2.495139977914925E-07
-0.561441 0.07048 -0.040692 0.6532257892366538 0.655722922519992 -0.37858092550733696
-0.561441 0.040692 -0.07048 0.6532273396666088 0.3785824677047005 -0.655720487600246
-0.561441 0 -0.081383 0.6532268055545781 3.7427165871090026E-07 -0.7571622946930344
-0.561441 -0.040692 -0.07048 0.6532271273964795 -0.37858082774609336 -0.6557216458958987
-0.561441 -0.07048 -0.040692 0.6532270581592801 -0.6557210783185399 -0.3785819302837155
-2.084521 -0.081383 0 -0.6532269584176914 -0.7571621628133054 -4.990287091375064E-07
-2.084521 -0.07048 0.040692 -0.6532267787849966 -0.6557216735597212 0.37858138134648933
-2.084521 -0.040692 0.07048 -0.6532273352480086 -0.3785814075356278 0.6557211040931417
-2.084521 0 0.081383 -0.6532266526912177 -6.237863092811242E-07 0.757162426572686
-2.084521 0.040692 0.07048 -0.6532270927780105 0.37858137901490135 0.6557213621073847
-2.084521 0.07048 0.040692 -0.6532272373738285 0.6557210067978644 0.3785817449335758
-2.084521 0.081383 0 -0.6532262502114697 0.7571627738028193 1.3723282485825337E-06
-2.084521 0.07048 -0.040692 -0.6532265342629632 0.6557224237777168 -0.37858050384280806
-2.084521 0.040692 -0.07048 -0.6532265200148064 0.37858206497360397 -0.6557215366523111
-2.084521 0 -0.081383 -0.6532268967129529 4.990286619985519E-07 -0.7571622160478668
-2.084521 -0.040692 -0.07048 -0.653227076908367 -0.3785805688211941 -0.6557218456821242
-2.084521 -0.07048 -0.040692 -0.6532270257561416 -0.6557212957823416 -0.3785816095365857
-0.561441 0 0 0.9999999999997973 6.366198034912529E-07 0
-2.084521 0 0 -1 0 0
-0.673869 -0.689984 1.332763 -0.062311140529674396 -0.8715102512444942 0.4864023064723794
-0.685264 -0.685264 1.332763 -0.6329986185865772 -0.6329986185865772 0.4456742058218874
-0.689984 -0.673869 1.332763 -0.8715103581762185 -0.06231131092101299 0.4864020930494274
-0.685264 -0.662474 1.332763 -0.6226596428504088 0.4941940814528315 0.6066854036668375
-0.673869 -0.657754 1.332763 -0.060478242230594254 0.6646858430150457 0.7446711437353244
-0.662474 -0.662474 1.332763 0.4264782423732335 0.4264782423732335 0.7976419106118203
-0.657754 -0.673869 1.332763 0.6646857878753645 -0.06047823721356095 0.7446711933598924
-0.662474 -0.685264 1.332763 0.4941943347979191 -0.6226593353429557 0.6066855129009685
-0.299497 -0.315612 0.303241 0.06047866560335115 -0.6646871562123321 -0.7446699372025174
-0.310892 -0.310892 0.303241 -0.4264776798584683 -0.426478403974193 -0.7976421249696903
-0.315612 -0.299497 0.303241 -0.6646871119426785 0.06047822611180775 -0.7446700124106451
-0.310892 -0.288102 0.303241 -0.49419298619078716 0.6226603482260442 -0.6066855718960639
-0.299497 -0.283382 0.303241 0.06230770431843024 0.8715092954167416 -0.4864044592566784
-0.288102 -0.288102 0.303241 0.6330006083724012 0.6329975320968372 -0.44567292284755583
-0.283382 -0.299497 0.303241 0.8715092974164883 0.06230496251963718 -0.4864048068862456
-0.288102 -0.310892 0.303241 0.6226601779955111 -0.4941932384412714 -0.6066855411310932
-0.673869 -0.673869 1.332763 0 0 1
-0.299497 -0.299497 0.303241 0 0 -1
-0.315612 0.299497 0.303241 -0.6646869885523337 -0.060478336131765835 -0.7446701136127079
-0.689984 0.673869 1.332763 -0.8715106578358727 0.06231408648557292 0.4864012005576805
-0.685264 0.662474 1.332763 -0.6226635382935484 -0.49419280217548817 0.6066824477086001
-0.310892 0.288102 0.303241 -0.4941938375469154 -0.6226615955953294 -0.6066835981805766
-0.673869 0.657754 1.332763 -0.06047743070620242 -0.6646856057062749 0.7446714214618813
-0.299497 0.283382 0.303241 0.06230967469079858 -0.8715093614754681 -0.48640408849078176
-0.662474 0.662474 1.332763 0.42647983878602125 -0.4264780802086528 0.7976411437548787
-0.288102 0.288102 0.303241 0.6329989460116715 -0.6329983692122189 -0.44567409496490196
-0.657754 0.673869 1.332763 0.6646872145750038 0.06048184048562443 0.7446696272522431
-0.283382 0.299497 0.303241 0.8715115804901139 -0.06231103488667982 -0.48639993832542283
-0.662474 0.685264 1.332763 0.4941932718866441 0.6226611186352666 0.6066845484779152
-0.288102 0.310892 0.303241 0.622661095484344 0.49419440682791377 -0.6066836477359869
-0.673869 0.689984 1.332763 -0.062309739324939176 0.8715095643846722 0.48640371665037335
-0.299497 0.315612 0.303241 0.06047555943090445 0.6646859645737294 -0.7446712531112034
-0.685264 0.685264 1.332763 -0.6329984516764985 0.6329990284751502 0.44567386071506515
-0.310892 0.310892 0.303241 -0.42647874253564655 0.4264767770690148 -0.7976424266462006
-0.299497 0.299497 0.303241 0 0 -1
-0.673869 0.673869 1.332763 0 0 1
0.673869 0.673869 1.332763 0 0 1
0.685264 0.685264 1.332763 0.6329979422998061 0.6329998649674397 0.44567339610460766
0.673869 0.689984 1.332763 0.06231241743972193 0.8715100809513976 0.4864024480128632
0.299497 0.299497 0.303241 0 0 -1
0.299497 0.315612 0.303241 -0.060479311050328714 0.6646869071940757 -0.74467010705389
0.310892 0.310892 0.303241 0.4264767073759862 0.4264795004138336 -0.7976420586908041
0.689984 0.673869 1.332763 0.8715100516170454 0.0623101245491255 0.48640279430645494
0.315612 0.299497 0.303241 0.6646872055469171 -0.060479753583529874 -0.7446698048052615
0.685264 0.662474 1.332763 0.6226614658547419 -0.49419481959365985 0.6066829313788333
0.310892 0.288102 0.303241 0.49419225833585856 -0.6226626312824095 -0.6066838216116945
0.673869 0.657754 1.332763 0.060477988978391475 -0.6646849523764633 0.7446719592769881
0.299497 0.283382 0.303241 -0.06231080279422751 -0.8715099070908405 -0.48640296637423286
0.662474 0.662474 1.332763 -0.42648064163052146 -0.42647971061880163 0.7976398427516782
0.288102 0.288102 0.303241 -0.6330007364303868 -0.6329972756249331 -0.44567310523521664
0.657754 0.673869 1.332763 -0.6646856529717601 0.06047846771965827 0.744671295052916
0.283382 0.299497 0.303241 -0.8715117371509111 -0.062311596641062665 -0.48639958566207997
0.662474 0.685264 1.332763 -0.49419222214709724 0.6226637336091962 0.6066827197285002
0.288102 0.310892 0.303241 -0.6226634661562028 0.49419182277435864 -0.6066833195476039
0.315612 -0.299497 0.303241 0.6646869623336311 0.06047931606743118 -0.7446700574292658
0.689984 -0.673869 1.332763 0.8715092374628182 -0.06231662698802908 0.4864034200309572
0.685264 -0.662474 1.332763 0.6226643286639367 0.49419240166206296 0.6066819627687732
0.310892 -0.288102 0.303241 0.49419134606575377 0.6226657162672667 -0.6066813984778916
0.673869 -0.657754 1.332763 0.06047885928203664 0.6646859492456272 0.7446709988010703
0.299497 -0.283382 0.303241 -0.062313122461790785 0.8715111873743185 -0.4864003752573262
0.662474 -0.662474 1.332763 -0.4264779674839981 0.4264813811879647 0.7976403793381596
0.288102 -0.288102 0.303241 -0.6329977949692526 0.6329999099025145 -0.4456735415385039
0.657754 -0.673869 1.332763 -0.664686833653897 -0.06047969947261738 0.7446701411489913
0.283382 -0.299497 0.303241 -0.8715097159289485 0.06231265451736422 -0.48640307166838836
0.662474 -0.685264 1.332763 -0.4941926049724541 -0.6226615483406333 0.6066846507112121
0.288102 -0.310892 0.303241 -0.6226647023114212 -0.49419155368258666 -0.6066822700262638
0.673868 -0.689984 1.332763 0.062304001413944335 -0.8715086403020303 0.48640610736987866
0.299497 -0.315612 0.303241 -0.06047974022451912 -0.6646860572203753 -0.7446708308771112
0.685264 -0.685264 1.332763 0.632992635844448 -0.6330051331855859 0.4456734503281484
0.310892 -0.310892 0.303241 0.4264785852930902 -0.4264771370490817 -0.7976423182484887
0.299497 -0.299497 0.303241 0 0 -1
0.673869 -0.673869 1.332763 0 0 1
-1.969194 0 -0.187186 0 -2.3903121604262117E-07 0.9999999999999715
-2.886225 0.379846 -0.221851 -0.9238764701623385 0.3826826772381305 0.002497282970318752
-2.671059 0.701864 -0.221851 -0.707104580551595 0.707104580551595 0.002494859897053341
-1.969194 0 -0.26206 0 1.5942301621969567E-07 -0.9999999999999867
-2.349041 0.91703 -0.221851 -0.3826818264835495 0.92387682909027 0.002494864590102269
-1.969195 0.992586 -0.221851 0 0.9999968817970027 0.0024972777721314937
-1.589348 0.91703 -0.221851 0.3826818264835495 0.92387682909027 0.002494864590102269
-1.26733 0.701865 -0.221851 0.707104580551595 0.707104580551595 0.002494859897053341
-1.052164 0.379847 -0.221851 0.92387682909027 0.3826818264835495 0.002494864590102269
-0.976608 0 -0.221851 0.9999968818120502 0 0.0024972717466611775
-1.052164 -0.379846 -0.221852 0.9238768235261376 -0.38268182417881336 0.0024972774034858845
-1.26733 -0.701864 -0.221852 0.7071045762930092 -0.7071045762930092 0.00249727270589831
-1.589348 -0.91703 -0.221852 0.38268182417881336 -0.9238768235261376 0.0024972774034858845
-1.969194 -0.992586 -0.221852 0 -0.9999968878195771 0.0024948649583917057
-2.34904 -0.91703 -0.221852 -0.38268182417881336 -0.9238768235261376 0.0024972774034858845
-2.671058 -0.701864 -0.221852 -0.707104580551595 -0.707104580551595 0.002494859897053341
-2.886224 -0.379846 -0.221852 -0.92387682909027 -0.3826818264835495 0.002494864590102269
-2.96178 0 -0.221851 -0.9999968818091391 -2.412822943626965E-06 0.002497271746653908
0 0.561441 0 6.36619904812463E-07 -0.9999999999997973 0
-0.081383 0.561441 0 -0.7571621628134001 -0.6532269584177728 0
-0.07048 0.561441 0.040692 -0.6557217303039248 -0.6532270867262674 0.3785807517219286
0 2.084521 0 0 1 0
-0.07048 2.084521 0.040692 -0.6557218991200138 0.6532270053857834 0.37858059967352375
-0.081383 2.084521 0 -0.7571621011085651 0.6532270299402914 -4.990286684692869E-07
-0.040692 0.561441 0.07048 -0.3785817472654652 -0.6532269233811224 0.6557213182499566
-0.040691 2.084521 0.07048 -0.378581761584638 0.6532271070964555 0.6557211269662346
0 0.561441 0.081383 -3.7427156235431656E-07 -0.6532268868951094 0.7571622245180906
0 2.084521 0.081383 -4.990288782811731E-07 0.6532268055545424 0.7571622946929929
0.040692 0.561441 0.07048 0.37858118226619003 -0.6532273990866333 0.6557211705568503
0.040692 2.084521 0.07048 0.37858085871625485 0.6532271808343404 0.6557215747807015
0.07048 0.561441 0.040692 0.6557229763642143 -0.6532255919366416 0.3785811726790973
0.07048 2.084521 0.040692 0.6557212113742819 0.6532270664263083 0.3785816855606243
0.081383 0.561441 0 0.7571630145645136 -0.6532259711427875 -3.7427096618619604E-07
0.081384 2.084521 0 0.7571627036282961 0.6532263315524923 8.732995697214331E-07
0.07048 0.561441 -0.040692 0.6557229534901544 -0.653225820088875 -0.37858081863106247
0.07048 2.084521 -0.040692 0.6557224061005346 0.6532265161782007 -0.37858056566524395
0.040692 0.561441 -0.07048 0.3785821778101115 -0.6532272357411137 -0.6557207585021055
0.040692 2.084521 -0.07048 0.37858238572039177 0.6532265524179403 -0.6557213191885928
0 0.561441 -0.081383 0 -0.6532268868951556 -0.7571622245181439
0 2.084521 -0.081383 9.980574182746402E-07 0.6532269584174477 -0.7571621628130228
-0.040691 0.561441 -0.07048 -0.37858052120046315 -0.6532271537479492 -0.6557217966286764
-0.040691 2.084521 -0.07048 -0.3785803549502243 0.6532270136525282 -0.655722032175496
-0.07048 0.561441 -0.040692 -0.6557213897707802 -0.6532267441662496 -0.37858193261569945
-0.07048 2.084521 -0.040692 -0.6557213492201878 0.6532269542335415 -0.3785816403890011
-0.379846 2.886224 -0.221852 -0.38268182417881336 0.9238768235261376 0.0024972774034858845
0 1.969194 -0.187186 -2.3903121604262117E-07 0 0.9999999999999715
0 2.96178 -0.221851 -2.4128229581583453E-06 0.9999968878316842 0.0024948589387357284
0 1.969194 -0.26206 2.391345243295395E-07 0 -0.9999999999999715
-0.701864 2.671058 -0.221852 -0.7071045762930092 0.7071045762930092 0.00249727270589831
-0.91703 2.34904 -0.221852 -0.92387682909027 0.3826818264835495 0.002494864590102269
-0.992586 1.969194 -0.221852 -0.9999968817970027 0 0.0024972777721314937
-0.91703 1.589348 -0.221852 -0.92387682909027 -0.3826818264835495 0.002494864590102269
-0.701864 1.26733 -0.221852 -0.707104580551595 -0.707104580551595 0.002494859897053341
-0.379846 1.052164 -0.221852 -0.38268182417881336 -0.9238768235261376 0.0024972774034858845
0 0.976608 -0.221851 0 -0.9999968818120502 0.0024972717466611775
0.379847 1.052164 -0.221851 0.38268182417881336 -0.9238768235261376 0.0024972774034858845
0.701865 1.26733 -0.221851 0.7071045762930092 -0.7071045762930092 0.00249727270589831
0.91703 1.589348 -0.221851 0.92387682909027 -0.3826818264835495 0.002494864590102269
0.992586 1.969194 -0.221851 0.9999968817970027 0 0.0024972777721314937
0.917031 2.34904 -0.221851 0.92387682909027 0.3826818264835495 0.002494864590102269
0.701865 2.671059 -0.221851 0.7071057826984501 0.7071033698704631 0.0024972769665458573
0.379847 2.886225 -0.221851 0.3826826772381305 0.9238764701623385 0.002497282970318752
2.96178 0 -0.221851 0.9999968818120502 0 0.0024972717466611775
2.886225 -0.379847 -0.221851 0.9238764757264938 -0.38268267954288204 0.0024948701515566545
1.969194 -1E-06 -0.187186 0 2.3903125413324213E-07 0.9999999999999715
1.969194 -1E-06 -0.26206 0 -2.391345052677676E-07 -0.9999999999999715
2.671059 -0.701865 -0.221851 0.7071033741290559 -0.7071057869570574 0.0024948641535843985
2.34904 -0.917031 -0.221851 0.38268182417881336 -0.9238768235261376 0.0024972774034858845
1.969194 -0.992587 -0.221851 0 -0.9999968817970027 0.0024972777721314937
1.589348 -0.917031 -0.221851 -0.38268182417881336 -0.9238768235261376 0.0024972774034858845
1.26733 -0.701865 -0.221851 -0.707104580551595 -0.707104580551595 0.002494859897053341
1.052164 -0.379847 -0.221851 -0.92387682909027 -0.3826818264835495 0.002494864590102269
0.976608 0 -0.221851 -0.9999968818120502 0 0.0024972717466611775
1.052164 0.379846 -0.221852 -0.92387682909027 0.3826818264835495 0.002494864590102269
1.26733 0.701864 -0.221852 -0.707104580551595 0.707104580551595 0.002494859897053341
1.589348 0.917029 -0.221852 -0.3826818264835495 0.92387682909027 0.002494864590102269
1.969194 0.992585 -0.221852 0 0.9999968878195771 0.0024948649583917057
2.349041 0.917029 -0.221852 0.3826818264835495 0.92387682909027 0.002494864590102269
2.671058 0.701864 -0.221852 0.707104580551595 0.707104580551595 0.002494859897053341
2.886224 0.379846 -0.221852 0.9238768235261376 0.38268182417881336 0.0024972774034858845
0.561441 0.07048 -0.040692 -0.6532266854111813 0.6557214565014827 -0.37858191841435823
0.561441 0.081383 0 -0.6532268868951556 0.7571622245181439 0
2.084521 0.081383 0 0.6532270397581419 0.7571620926384036 -4.99028580662138E-07
2.084521 0.070479 -0.040692 0.6532271913867085 0.6557210868211573 -0.378581685678419
0.561441 0.040691 -0.07048 -0.6532271311623888 0.3785803833538163 -0.6557218987139538
2.084521 0.040691 -0.07048 0.6532270543227989 0.3785804309744831 -0.6557219477674466
0.561441 0 -0.081383 -0.6532268868951503 -1.2475718745144664E-07 -0.7571622245181381
2.084521 -1E-06 -0.081383 0.6532269584174477 -9.980574182746402E-07 -0.7571621628130228
0.561441 -0.040692 -0.07048 -0.6532273607015427 -0.37858217792787674 -0.6557206339488499
2.084521 -0.040692 -0.07048 0.6532264989801827 -0.3785823547501353 -0.6557213903037906
0.561441 -0.07048 -0.040692 -0.6532258916114815 -0.6557229000524041 -0.37858078777884474
2.084521 -0.070481 -0.040692 0.6532264138032875 -0.6557224285682138 -0.3785807033940056
0.561441 -0.081383 0 -0.6532260524834604 -0.7571629443896044 -3.7427086983001325E-07
2.084521 -0.081384 0 0.6532263217345147 -0.7571627120985515 8.732997233837764E-07
0.561441 -0.07048 0.040692 -0.6532258328562328 -0.6557229667832359 0.3785807735771487
2.084521 -0.07048 0.040692 0.653226994903724 -0.6557212648121178 0.37858171641304406
0.561441 -0.040692 0.07048 -0.6532273727349908 -0.37858148881204207 0.655721019823674
2.084521 -0.040692 0.07048 0.6532271093117893 -0.378580889568606 0.6557216282185653
0.561441 0 0.081383 -0.6532269584177676 1.2475717728439122E-07 0.757162162813394
2.084521 0 0.081383 0.6532268055545424 4.990288782811731E-07 0.7571622946929929
0.561441 0.040691 0.07048 -0.6532268420407057 0.3785815952173462 0.6557214870661298
2.084521 0.040691 0.07048 0.6532272320568291 0.3785817617024265 0.6557210024131157
0.561441 0.07048 0.040692 -0.6532270460560352 0.6557218147119629 0.3785806756977386
2.084521 0.070479 0.040692 0.6532271175786032 0.6557217612740844 0.378580644845405
2.084521 -1E-06 0 1 0 0
0.561441 0 0 -0.9999999999997973 -6.366198034912529E-07 0
0 -0.561441 0 -6.366197528306607E-07 0.9999999999997973 0
0.081383 -0.561441 0 0.7571622245181439 0.6532268868951556 0
0.07048 -0.561441 0.040692 0.6557216687694254 0.6532268992447935 0.37858118179496536
-1E-06 -2.084521 0 0 -1 0
0.070479 -2.084521 0.040692 0.6557216105412231 -0.6532270912270908 0.37858095139113734
0.081382 -2.084521 0 0.7571621712831977 -0.6532269485995792 -9.980575938890274E-07
0.040691 -0.561441 0.07048 0.3785812269667166 0.6532270114376306 0.655721530923484
0.040691 -2.084521 0.07048 0.3785813933341704 -0.653227276493225 0.6557211708236985
0 -0.561441 0.081383 2.495143545687766E-07 0.6532269584177524 0.7571621628133762
-1E-06 -2.084521 0.081383 4.990288782811731E-07 -0.6532268055545424 0.7571622946929929
-0.040692 -0.561441 0.07048 -0.37858145795961123 0.6532274442575413 0.6557209663858066
-0.040692 -2.084521 0.07048 -0.378580920420959 -0.6532270377892212 0.6557216816564321
-0.07048 -0.561441 0.040692 -0.6557227360270727 0.6532258524925322 0.3785811393777756
-0.070481 -2.084521 0.040692 -0.6557212872797192 -0.6532268925286974 0.37858185414191414
-0.081384 -0.561441 0 -0.7571629613302086 0.6532260328474419 2.495140010269092E-07
-0.081384 -2.084521 0 -0.7571627738031551 -0.6532262502117598 9.980569080604673E-07
-0.07048 -0.561441 -0.040692 -0.6557229000524041 0.6532258916114815 -0.37858078777884474
-0.070481 -2.084521 -0.040692 -0.6557225129762445 -0.6532263731329285 -0.37858062736981024
-0.040692 -0.561441 -0.07048 -0.37858204008115687 0.6532273381161807 -0.6557207360345089
-0.040693 -2.084521 -0.07048 -0.378582247873839 -0.6532265298325995 -0.6557214212740431
0 -0.561441 -0.081383 0 0.6532269584177728 -0.7571621628134001
-1E-06 -2.084521 -0.081383 -1.1228143979927056E-06 -0.6532269682352255 -0.7571621543427504
0.040691 -0.561441 -0.07048 0.3785803833538163 0.6532271311623888 -0.6557218987139538
0.040691 -2.084521 -0.07048 0.3785806923483698 -0.6532269157784611 -0.6557219348806234
0.07048 -0.561441 -0.040692 0.6557215276167812 0.6532266319733091 -0.37858188744408
0.070479 -2.084521 -0.040692 0.6557208999222603 -0.6532273804188172 -0.3785816832287469
0.379845 -2.886224 -0.221852 0.38268182417881336 -0.9238768235261376 0.0024972774034858845
-1E-06 -1.969194 -0.187186 2.390312350879301E-07 0 0.9999999999999715
-1E-06 -2.96178 -0.221851 0 -0.9999968878345948 0.002494858938742991
-1E-06 -1.969194 -0.26206 -2.391345052677676E-07 0 -0.9999999999999715
0.701863 -2.671058 -0.221852 0.707104580551595 -0.707104580551595 0.002494859897053341
0.917029 -2.349041 -0.221852 0.92387682909027 -0.3826818264835495 0.002494864590102269
0.992585 -1.969195 -0.221852 0.9999968817970027 0 0.0024972777721314937
0.917029 -1.589348 -0.221852 0.92387682909027 0.3826818264835495 0.002494864590102269
0.701864 -1.26733 -0.221852 0.7071045762930092 0.7071045762930092 0.00249727270589831
0.379846 -1.052164 -0.221852 0.38268182417881336 0.9238768235261376 0.0024972774034858845
-1E-06 -0.976608 -0.221851 0 0.9999968878345948 0.002494858938742991
-0.379847 -1.052164 -0.221851 -0.38268182417881336 0.9238768235261376 0.0024972774034858845
-0.701865 -1.26733 -0.221851 -0.707104580551595 0.707104580551595 0.002494859897053341
-0.917031 -1.589348 -0.221851 -0.9238768235261376 0.38268182417881336 0.0024972774034858845
-0.992587 -1.969194 -0.221851 -0.9999968817970027 0 0.0024972777721314937
-0.917031 -2.34904 -0.221851 -0.9238768235261376 -0.38268182417881336 0.0024972774034858845
-0.701866 -2.671059 -0.221851 -0.7071057869570574 -0.7071033741290559 0.0024948641535843985
-0.379847 -2.886225 -0.221851 -0.38268267954288204 -0.9238764757264938 0.0024948701515566545
-0.336934 -0.561557 0.299497 -0.2971084998799311 -0.717283504961449 0.6302625744951986
-0.336934 0.561557 0.299497 -0.29710857173002253 0.7172833555319242 0.6302627106861146
0.336934 0.561557 0.299497 0.29710854996945485 0.7172836258882793 0.6302624132594382
0.336934 -0.561558 0.299497 0.2971085567115719 -0.7172838313105603 0.6302621762958729
-0.336935 -0.561557 -0.299497 -0.29710872545661715 -0.7172835929147725 -0.6302623680601753
-0.336934 0.561558 -0.299497 -0.29710838122436645 0.7172838642840245 -0.6302622214951596
0.336934 0.561557 -0.299497 0.2971085249246924 0.7172835654248628 -0.6302624938773285
0.336934 -0.561557 -0.299497 0.297108543227315 -0.7172834204661224 -0.6302626502227175
-0.561557 -0.336934 0.299497 -0.7172833600027289 -0.2971085181825556 0.6302627308405295
0.561557 -0.336935 0.299497 0.7172834479560023 -0.29710874375917173 0.6302625244056603
-0.561558 -0.336934 -0.299497 -0.7172837753178577 -0.29710847811930735 -0.6302622770683568
0.561557 -0.336934 -0.299497 0.7172834809295174 -0.2971085682720754 -0.6302625696048844
-0.561557 0.336934 0.299497 -0.7172834204661223 0.29710854322731495 0.6302626502227174
0.561557 0.336934 0.299497 0.7172835939275793 0.297108402985042 0.6302625189220861
-0.561557 0.336935 -0.299497 -0.7172835929147722 0.29710872545661715 -0.6302623680601752
0.561557 0.336934 -0.299497 0.7172836258882793 0.29710854996945485 -0.6302624132594382
3 60 36 37
3 61 49 48
3 60 37 38
3 61 50 49
3 60 38 39
3 61 51 50
3 60 39 40
3 61 52 51
3 60 40 41
3 61 53 52
3 60 41 42
3 61 54 53
3 60 42 43
3 61 55 54
3 60 43 44
3 61 56 55
3 60 44 45
3 61 57 56
3 60 45 46
3 61 58 57
3 60 46 47
3 61 59 58
3 47 36 60
3 61 48 59
3 48 36 47
3 48 47 59
3 46 58 59
3 46 59 47
3 45 57 58
3 45 58 46
3 44 56 57
3 44 57 45
3 43 55 56
3 43 56 44
3 42 54 55
3 42 55 43
3 41 53 54
3 41 54 42
3 40 52 53
3 40 53 41
3 39 51 52
3 39 52 40
3 38 50 51
3 38 51 39
3 37 49 50
3 37 50 38
3 36 48 49
3 36 49 37
3 151 135 134
3 137 135 151
3 136 138 134
3 137 138 136
3 139 140 134
3 137 140 139
3 141 142 134
3 137 142 141
3 143 144 134
3 137 144 143
3 145 146 134
3 137 146 145
3 147 148 134
3 137 148 147
3 149 150 134
3 137 150 149
3 181 178 182
3 182 178 179
3 181 183 184
3 184 183 179
3 181 185 186
3 186 185 179
3 181 187 188
3 188 187 179
3 181 189 190
3 190 189 179
3 181 191 192
3 192 191 179
3 181 193 194
3 194 193 179
3 181 195 180
3 180 195 179
3 196 197 198
3 199 197 196
3 200 201 198
3 199 201 200
3 202 203 198
3 199 203 202
3 204 205 198
3 199 205 204
3 206 207 198
3 199 207 206
3 208 209 198
3 199 209 208
3 210 211 198
3 199 211 210
3 212 213 198
3 199 213 212
3 269 266 270
3 270 266 267
3 269 271 272
3 272 271 267
3 269 273 274
3 274 273 267
3 269 275 276
3 276 275 267
3 269 277 278
3 278 277 267
3 269 279 280
3 280 279 267
3 269 281 282
3 282 281 267
3 269 283 268
3 268 283 267
3 16 0 3
3 2 1 17
3 16 3 5
3 17 4 2
3 16 5 7
3 17 6 4
3 16 7 9
3 17 8 6
3 16 9 11
3 17 10 8
3 16 11 13
3 17 12 10
3 16 13 15
3 17 14 12
3 15 0 16
3 17 1 14
3 18 20 19
3 21 23 22
3 18 19 24
3 21 25 23
3 18 24 26
3 21 27 25
3 18 26 28
3 21 29 27
3 18 28 30
3 21 31 29
3 18 30 32
3 21 33 31
3 18 32 34
3 21 35 33
3 34 20 18
3 35 21 22
3 78 62 63
3 79 71 70
3 78 63 64
3 79 72 71
3 78 64 65
3 79 73 72
3 78 65 66
3 79 74 73
3 78 66 67
3 79 75 74
3 78 67 68
3 79 76 75
3 78 68 69
3 79 77 76
3 69 62 78
3 79 70 77
3 96 80 83
3 82 81 97
3 96 83 85
3 97 84 82
3 96 85 87
3 97 86 84
3 96 87 89
3 97 88 86
3 96 89 91
3 97 90 88
3 96 91 93
3 97 92 90
3 96 93 95
3 97 94 92
3 96 95 80
3 97 81 94
3 98 100 99
3 101 103 102
3 98 99 104
3 101 105 103
3 98 104 106
3 101 107 105
3 98 106 108
3 101 109 107
3 98 108 110
3 101 111 109
3 98 110 112
3 101 113 111
3 98 112 114
3 101 115 113
3 114 100 98
3 101 102 115
3 132 116 119
3 118 117 133
3 132 119 121
3 133 120 118
3 132 121 123
3 133 122 120
3 132 123 125
3 133 124 122
3 132 125 127
3 133 126 124
3 132 127 129
3 133 128 126
3 132 129 131
3 133 130 128
3 132 131 116
3 133 117 130
3 152 153 154
3 155 156 157
3 152 154 158
3 155 159 156
3 152 158 160
3 155 161 159
3 152 160 162
3 155 163 161
3 152 162 164
3 155 165 163
3 152 164 166
3 155 167 165
3 152 166 168
3 155 169 167
3 152 168 170
3 155 171 169
3 152 170 172
3 155 173 171
3 152 172 174
3 155 175 173
3 152 174 176
3 155 177 175
3 152 176 153
3 155 157 177
3 238 216 217
3 239 214 215
3 238 217 219
3 239 218 214
3 238 219 221
3 239 220 218
3 238 221 223
3 239 222 220
3 238 223 225
3 239 224 222
3 238 225 227
3 239 226 224
3 238 227 229
3 239 228 226
3 238 229 231
3 239 230 228
3 238 231 233
3 239 232 230
3 238 233 235
3 239 234 232
3 238 235 237
3 239 236 234
3 238 237 216
3 239 215 236
3 240 241 242
3 243 244 245
3 240 242 246
3 243 247 244
3 240 246 248
3 243 249 247
3 240 248 250
3 243 251 249
3 240 250 252
3 243 253 251
3 240 252 254
3 243 255 253
3 240 254 256
3 243 257 255
3 240 256 258
3 243 259 257
3 240 258 260
3 243 261 259
3 240 260 262
3 243 263 261
3 240 262 264
3 243 265 263
3 240 264 241
3 243 245 265
3 299 295 297
3 295 293 297
3 290 299 297
3 290 297 286
3 298 289 285
3 298 285 296
3 294 298 296
3 294 296 292
3 299 290 298
3 290 289 298
3 295 299 298
3 295 298 294
3 296 285 286
3 296 286 297
3 292 296 297
3 292 297 293
3 295 291 293
3 291 287 293
3 292 284 288
3 292 288 294
3 291 295 288
3 295 294 288
3 284 292 293
3 284 293 287
3 288 284 291
3 284 287 291
3 285 289 290
3 285 290 286
3 264 245 241
3 264 265 245
3 262 265 264
3 262 263 265
3 260 263 262
3 260 261 263
3 258 261 260
3 258 259 261
3 256 259 258
3 256 257 259
3 254 257 256
3 254 255 257
3 252 255 254
3 252 253 255
3 250 253 252
3 250 251 253
3 248 251 250
3 248 249 251
3 246 249 248
3 246 247 249
3 242 247 246
3 242 244 247
3 241 244 242
3 241 245 244
3 215 216 237
3 215 237 236
3 236 237 235
3 236 235 234
3 234 235 233
3 234 233 232
3 232 233 231
3 232 231 230
3 230 231 229
3 230 229 228
3 228 229 227
3 228 227 226
3 226 227 225
3 226 225 224
3 224 225 223
3 224 223 222
3 222 223 221
3 222 221 220
3 220 221 219
3 220 219 218
3 218 219 217
3 218 217 214
3 214 217 216
3 214 216 215
3 176 157 153
3 176 177 157
3 174 177 176
3 174 175 177
3 172 175 174
3 172 173 175
3 170 173 172
3 170 171 173
3 168 171 170
3 168 169 171
3 166 169 168
3 166 167 169
3 164 167 166
3 164 165 167
3 162 165 164
3 162 163 165
3 160 163 162
3 160 161 163
3 158 161 160
3 158 159 161
3 154 159 158
3 154 156 159
3 153 156 154
3 153 157 156
3 117 131 130
3 117 116 131
3 130 131 128
3 128 131 129
3 128 129 126
3 126 129 127
3 126 127 124
3 124 127 125
3 124 125 122
3 122 125 123
3 122 121 120
3 122 123 121
3 120 119 118
3 120 121 119
3 116 118 119
3 116 117 118
3 102 100 114
3 102 114 115
3 112 113 115
3 112 115 114
3 110 111 113
3 110 113 112
3 108 109 110
3 109 111 110
3 106 107 108
3 107 109 108
3 104 105 106
3 105 107 106
3 99 103 104
3 103 105 104
3 100 102 103
3 100 103 99
3 81 95 94
3 81 80 95
3 94 95 92
3 92 95 93
3 92 93 90
3 90 93 91
3 90 91 88
3 88 91 89
3 88 89 86
3 86 89 87
3 86 85 84
3 86 87 85
3 84 83 82
3 84 85 83
3 80 82 83
3 80 81 82
3 70 62 69
3 70 69 77
3 68 76 77
3 68 77 69
3 67 75 76
3 67 76 68
3 66 74 67
3 74 75 67
3 65 73 66
3 73 74 66
3 64 72 65
3 72 73 65
3 63 71 64
3 71 72 64
3 62 70 71
3 62 71 63
3 22 20 34
3 22 34 35
3 32 33 35
3 32 35 34
3 30 31 33
3 30 33 32
3 28 29 31
3 28 31 30
3 26 27 29
3 26 29 28
3 24 25 27
3 24 27 26
3 19 23 25
3 19 25 24
3 23 19 20
3 23 20 22
3 1 0 15
3 15 14 1
3 14 13 12
3 14 15 13
3 12 11 10
3 12 13 11
3 10 9 8
3 10 11 9
3 8 7 6
3 8 9 7
3 6 5 4
3 6 7 5
3 4 3 2
3 4 5 3
3 0 2 3
3 0 1 2
3 137 136 135
3 135 136 134
3 137 139 138
3 138 139 134
3 137 141 140
3 140 141 134
3 137 143 142
3 142 143 134
3 137 145 144
3 144 145 134
3 137 147 146
3 146 147 134
3 137 149 148
3 148 149 134
3 137 151 150
3 150 151 134
3 178 180 179
3 181 180 178
3 183 182 179
3 181 182 183
3 185 184 179
3 181 184 185
3 187 186 179
3 181 186 187
3 189 188 179
3 181 188 189
3 191 190 179
3 181 190 191
3 193 192 179
3 181 192 193
3 195 194 179
3 181 194 195
3 199 200 197
3 197 200 198
3 199 202 201
3 201 202 198
3 199 204 203
3 203 204 198
3 199 206 205
3 205 206 198
3 199 208 207
3 207 208 198
3 199 210 209
3 209 210 198
3 199 212 211
3 211 212 198
3 199 196 213
3 213 196 198
3 266 268 267
3 269 268 266
3 271 270 267
3 269 270 271
3 273 272 267
3 269 272 273
3 275 274 267
3 269 274 275
3 277 276 267
3 269 276 277
3 279 278 267
3 269 278 279
3 281 280 267
3 269 280 281
3 283 282 267
3 269 282 283
3 60 36 37
3 61 49 48
3 60 37 38
3 61 50 49
3 60 38 39
3 61 51 50
3 60 39 40
3 61 52 51
3 60 40 41
3 61 53 52
3 60 41 42
3 61 54 53
3 60 42 43
3 61 55 54
3 60 43 44
3 61 56 55
3 60 44 45
3 61 57 56
3 60 45 46
3 61 58 57
3 60 46 47
3 61 59 58
3 47 36 60
3 61 48 59
3 48 36 47
3 48 47 59
3 46 58 59
3 46 59 47
3 45 57 58
3 45 58 46
3 44 56 57
3 44 57 45
3 43 55 56
3 43 56 44
3 42 54 55
3 42 55 43
3 41 53 54
3 41 54 42
3 40 52 53
3 40 53 41
3 39 51 52
3 39 52 40
3 38 50 51
3 38 51 39
3 37 49 50
3 37 50 38
3 36 48 49
3 36 49 37
3 151 135 134
3 137 135 151
3 136 138 134
3 137 138 136
3 139 140 134
3 137 140 139
3 141 142 134
3 137 142 141
3 143 144 134
3 137 144 143
3 145 146 134
3 137 146 145
3 147 148 134
3 137 148 147
3 149 150 134
3 137 150 149
3 181 178 182
3 182 178 179
3 181 183 184
3 184 183 179
3 181 185 186
3 186 185 179
3 181 187 188
3 188 187 179
3 181 189 190
3 190 189 179
3 181 191 192
3 192 191 179
3 181 193 194
3 194 193 179
3 181 195 180
3 180 195 179
3 196 197 198
3 199 197 196
3 200 201 198
3 199 201 200
3 202 203 198
3 199 203 202
3 204 205 198
3 199 205 204
3 206 207 198
3 199 207 206
3 208 209 198
3 199 209 208
3 210 211 198
3 199 211 210
3 212 213 198
3 199 213 212
3 269 266 270
3 270 266 267
3 269 271 272
3 272 271 267
3 269 273 274
3 274 273 267
3 269 275 276
3 276 275 267
3 269 277 278
3 278 277 267
3 269 279 280
3 280 279 267
3 269 281 282
3 282 281 267
3 269 283 268
3 268 283 267
3 16 0 3
3 2 1 17
3 16 3 5
3 17 4 2
3 16 5 7
3 17 6 4
3 16 7 9
3 17 8 6
3 16 9 11
3 17 10 8
3 16 11 13
3 17 12 10
3 16 13 15
3 17 14 12
3 15 0 16
3 17 1 14
3 18 20 19
3 21 23 22
3 18 19 24
3 21 25 23
3 18 24 26
3 21 27 25
3 18 26 28
3 21 29 27
3 18 28 30
3 21 31 29
3 18 30 32
3 21 33 31
3 18 32 34
3 21 35 33
3 34 20 18
3 35 21 22
3 78 62 63
3 79 71 70
3 78 63 64
3 79 72 71
3 78 64 65
3 79 73 72
3 78 65 66
3 79 74 73
3 78 66 67
3 79 75 74
3 78 67 68
3 79 76 75
3 78 68 69
3 79 77 76
3 69 62 78
3 79 70 77
3 96 80 83
3 82 81 97
3 96 83 85
3 97 84 82
3 96 85 87
3 97 86 84
3 96 87 89
3 97 88 86
3 96 89 91
3 97 90 88
3 96 91 93
3 97 92 90
3 96 93 95
3 97 94 92
3 96 95 80
3 97 81 94
3 98 100 99
3 101 103 102
3 98 99 104
3 101 105 103
3 98 104 106
3 101 107 105
3 98 106 108
3 101 109 107
3 98 108 110
3 101 111 109
3 98 110 112
3 101 113 111
3 98 112 114
3 101 115 113
3 114 100 98
3 101 102 115
3 132 116 119
3 118 117 133
3 132 119 121
3 133 120 118
3 132 121 123
3 133 122 120
3 132 123 125
3 133 124 122
3 132 125 127
3 133 126 124
3 132 127 129
3 133 128 126
3 132 129 131
3 133 130 128
3 132 131 116
3 133 117 130
3 152 153 154
3 155 156 157
3 152 154 158
3 155 159 156
3 152 158 160
3 155 161 159
3 152 160 162
3 155 163 161
3 152 162 164
3 155 165 163
3 152 164 166
3 155 167 165
3 152 166 168
3 155 169 167
3 152 168 170
3 155 171 169
3 152 170 172
3 155 173 171
3 152 172 174
3 155 175 173
3 152 174 176
3 155 177 175
3 152 176 153
3 155 157 177
3 238 216 217
3 239 214 215
3 238 217 219
3 239 218 214
3 238 219 221
3 239 220 218
3 238 221 223
3 239 222 220
3 238 223 225
3 239 224 222
3 238 225 227
3 239 226 224
3 238 227 229
3 239 228 226
3 238 229 231
3 239 230 228
3 238 231 233
3 239 232 230
3 238 233 235
3 239 234 232
3 238 235 237
3 239 236 234
3 238 237 216
3 239 215 236
3 240 241 242
3 243 244 245
3 240 242 246
3 243 247 244
3 240 246 248
3 243 249 247
3 240 248 250
3 243 251 249
3 240 250 252
3 243 253 251
3 240 252 254
3 243 255 253
3 240 254 256
3 243 257 255
3 240 256 258
3 243 259 257
3 240 258 260
3 243 261 259
3 240 260 262
3 243 263 261
3 240 262 264
3 243 265 263
3 240 264 241
3 243 245 265
3 299 295 297
3 295 293 297
3 290 299 297
3 290 297 286
3 298 289 285
3 298 285 296
3 294 298 296
3 294 296 292
3 299 290 298
3 290 289 298
3 295 299 298
3 295 298 294
3 296 285 286
3 296 286 297
3 292 296 297
3 292 297 293
3 295 291 293
3 291 287 293
3 292 284 288
3 292 288 294
3 291 295 288
3 295 294 288
3 284 292 293
3 284 293 287
3 288 284 291
3 284 287 291
3 285 289 290
3 285 290 286
3 264 245 241
3 264 265 245
3 262 265 264
3 262 263 265
3 260 263 262
3 260 261 263
3 258 261 260
3 258 259 261
3 256 259 258
3 256 257 259
3 254 257 256
3 254 255 257
3 252 255 254
3 252 253 255
3 250 253 252
3 250 251 253
3 248 251 250
3 248 249 251
3 246 249 248
3 246 247 249
3 242 247 246
3 242 244 247
3 241 244 242
3 241 245 244
3 215 216 237
3 215 237 236
3 236 237 235
3 236 235 234
3 234 235 233
3 234 233 232
3 232 233 231
3 232 231 230
3 230 231 229
3 230 229 228
3 228 229 227
3 228 227 226
3 226 227 225
3 226 225 224
3 224 225 223
3 224 223 222
3 222 223 221
3 222 221 220
3 220 221 219
3 220 219 218
3 218 219 217
3 218 217 214
3 214 217 216
3 214 216 215
3 176 157 153
3 176 177 157
3 174 177 176
3 174 175 177
3 172 175 174
3 172 173 175
3 170 173 172
3 170 171 173
3 168 171 170
3 168 169 171
3 166 169 168
3 166 167 169
3 164 167 166
3 164 165 167
3 162 165 164
3 162 163 165
3 160 163 162
3 160 161 163
3 158 161 160
3 158 159 161
3 154 159 158
3 154 156 159
3 153 156 154
3 153 157 156
3 117 131 130
3 117 116 131
3 130 131 128
3 128 131 129
3 128 129 126
3 126 129 127
3 126 127 124
3 124 127 125
3 124 125 122
3 122 125 123
3 122 121 120
3 122 123 121
3 120 119 118
3 120 121 119
3 116 118 119
3 116 117 118
3 102 100 114
3 102 114 115
3 112 113 115
3 112 115 114
3 110 111 113
3 110 113 112
3 108 109 110
3 109 111 110
3 106 107 108
3 107 109 108
3 104 105 106
3 105 107 106
3 99 103 104
3 103 105 104
3 100 102 103
3 100 103 99
3 81 95 94
3 81 80 95
3 94 95 92
3 92 95 93
3 92 93 90
3 90 93 91
3 90 91 88
3 88 91 89
3 88 89 86
3 86 89 87
3 86 85 84
3 86 87 85
3 84 83 82
3 84 85 83
3 80 82 83
3 80 81 82
3 70 62 69
3 70 69 77
3 68 76 77
3 68 77 69
3 67 75 76
3 67 76 68
3 66 74 67
3 74 75 67
3 65 73 66
3 73 74 66
3 64 72 65
3 72 73 65
3 63 71 64
3 71 72 64
3 62 70 71
3 62 71 63
3 22 20 34
3 22 34 35
3 32 33 35
3 32 35 34
3 30 31 33
3 30 33 32
3 28 29 31
3 28 31 30
3 26 27 29
3 26 29 28
3 24 25 27
3 24 27 26
3 19 23 25
3 19 25 24
3 23 19 20
3 23 20 22
3 1 0 15
3 15 14 1
3 14 13 12
3 14 15 13
3 12 11 10
3 12 13 11
3 10 9 8
3 10 11 9
3 8 7 6
3 8 9 7
3 6 5 4
3 6 7 5
3 4 3 2
3 4 5 3
3 0 2 3
3 0 1 2
3 137 136 135
3 135 136 134
3 137 139 138
3 138 139 134
3 137 141 140
3 140 141 134
3 137 143 142
3 142 143 134
3 137 145 144
3 144 145 134
3 137 147 146
3 146 147 134
3 137 149 148
3 148 149 134
3 137 151 150
3 150 151 134
3 178 180 179
3 181 180 178
3 183 182 179
3 181 182 183
3 185 184 179
3 181 184 185
3 187 186 179
3 181 186 187
3 189 188 179
3 181 188 189
3 191 190 179
3 181 190 191
3 193 192 179
3 181 192 193
3 195 194 179
3 181 194 195
3 199 200 197
3 197 200 198
3 199 202 201
3 201 202 198
3 199 204 203
3 203 204 198
3 199 206 205
3 205 206 198
3 199 208 207
3 207 208 198
3 199 210 209
3 209 210 198
3 199 212 211
3 211 212 198
3 199 196 213
3 213 196 198
3 266 268 267
3 269 268 266
3 271 270 267
3 269 270 271
3 273 272 267
3 269 272 273
3 275 274 267
3 269 274 275
3 277 276 267
3 269 276 277
3 279 278 267
3 269 278 279
3 281 280 267
3 269 280 281
3 283 282 267
3 269 282 283
